<?xml version="1.0" encoding="UTF-8"?>
<svg width="110px" height="110px" viewBox="0 0 110 110" version="1.1" xmlns="http://www.w3.org/2000/svg" xmlns:xlink="http://www.w3.org/1999/xlink">
    <!-- Generator: Sketch 3.6 (26304) - http://www.bohemiancoding.com/sketch -->
    <title>Group 5</title>
    <desc>Created with Sketch.</desc>
    <defs>
        <filter x="-50%" y="-50%" width="200%" height="200%" filterUnits="objectBoundingBox" id="filter-1">
            <feOffset dx="6" dy="4" in="SourceAlpha" result="shadowOffsetOuter1"></feOffset>
            <feGaussianBlur stdDeviation="10" in="shadowOffsetOuter1" result="shadowBlurOuter1"></feGaussianBlur>
            <feColorMatrix values="0 0 0 0 0.207843137   0 0 0 0 0.266666667   0 0 0 0 0.37254902  0 0 0 0.7 0" in="shadowBlurOuter1" type="matrix" result="shadowMatrixOuter1"></feColorMatrix>
            <feMerge>
                <feMergeNode in="shadowMatrixOuter1"></feMergeNode>
                <feMergeNode in="SourceGraphic"></feMergeNode>
            </feMerge>
        </filter>
    </defs>
    <g id="Page-1" stroke="none" stroke-width="1" fill="none" fill-rule="evenodd">
        <g id="1-Paso---Preguntas-Frecuentes-Copy-3" transform="translate(-856.000000, -393.000000)">
            <g id="Group-5" transform="translate(870.000000, 409.000000)">
                <rect id="Rectangle-1015-Copy-3" stroke="#35445F" fill="#FFFFFF" opacity="0.1" filter="url(#filter-1)" x="0" y="0" width="70" height="70" rx="4"></rect>
                <g id="Page-1" transform="translate(19.000000, 19.000000)" fill="#35445F">
                    <path d="M25.3369614,22.4260227 C24.9476054,23.5061718 23.0436764,24.5486412 22.1873886,24.6254781 C21.3325784,24.7030538 21.3325784,25.3214428 16.5901181,23.4707086 C11.8476578,21.6155415 8.85471393,16.7888562 8.62124806,16.4815087 C8.38704336,16.1741612 6.71584144,13.9732282 6.71584144,11.6954582 C6.71584144,9.41842714 7.92158925,8.29838199 8.34862493,7.83440551 C8.77566061,7.37190665 9.28322725,7.25591253 9.59279118,7.25591253 C9.90383274,7.25591253 10.2156131,7.29506978 10.4867586,7.29506978 C10.7601206,7.29506978 11.1472602,7.14065723 11.5358774,8.06639375 C11.9237558,8.99360791 12.8583582,11.2713778 12.9743523,11.5026272 C13.0910852,11.7346155 13.1693997,12.0050222 13.0135095,12.3138473 C12.8583582,12.6234112 12.7807825,12.8155034 12.5473166,13.0859101 C12.3153284,13.3563167 12.0574816,13.688784 11.846919,13.8971301 C11.6149307,14.1276407 11.3703826,14.3766217 11.6430057,14.8398594 C11.9156289,15.3045747 12.8524476,16.81767 14.2384666,18.0441046 C16.0197521,19.6214769 17.5232428,20.1105732 17.9894357,20.3418226 C18.4563675,20.5723332 18.7282518,20.5346536 18.9993973,20.2243508 C19.2720204,19.9155257 20.1667266,18.8737951 20.4770294,18.4105574 C20.7873321,17.9473197 21.1005901,18.0263731 21.5276258,18.1800468 C21.9546615,18.3344594 24.2479466,19.4545045 24.7126619,19.6857539 C25.1795936,19.9162645 25.4898964,20.0337363 25.6081069,20.2243508 C25.7248399,20.416443 25.7248399,21.3429184 25.3369614,22.4260227 M15.9990652,-6.75015599e-14 C7.17612384,-6.75015599e-14 3.44423907e-06,7.12218682 3.44423907e-06,15.8756795 C-0.00221300394,19.2232551 1.0653762,22.4843892 3.04761969,25.1840231 L1.04838343,31.0797752 L7.19607187,29.1248679 C9.81074191,30.8418765 12.870918,31.7557919 15.9990652,31.751359 C24.820529,31.751359 31.9996047,24.629911 31.9996047,15.8764183 C31.9996047,7.12292564 24.820529,-6.75015599e-14 15.9990652,-6.75015599e-14" id="Fill-1"></path>
                </g>
            </g>
        </g>
    </g>
</svg>