<?xml version="1.0" encoding="UTF-8"?>
<svg width="14px" height="14px" viewBox="0 0 14 14" version="1.1" xmlns="http://www.w3.org/2000/svg" xmlns:xlink="http://www.w3.org/1999/xlink">
    <!-- Generator: Sketch 3.6 (26304) - http://www.bohemiancoding.com/sketch -->
    <title>Page 1</title>
    <desc>Created with Sketch.</desc>
    <defs></defs>
    <g id="Page-1" stroke="none" stroke-width="1" fill="none" fill-rule="evenodd">
        <g id="1-Paso---Preguntas-Frecuentes-Copy-2" transform="translate(-626.000000, -419.000000)" fill="#35445F">
            <g id="Page-1" transform="translate(626.000000, 419.000000)">
                <path d="M13.6499158,11.0507632 L11.4935547,8.88792414 C11.0640476,8.45891264 10.3527754,8.47194713 9.90830544,8.91785517 L8.82192149,10.0071598 C8.75328539,9.96918276 8.68224241,9.92959655 8.607549,9.88755632 C7.92150888,9.5062977 6.98254613,8.98379195 5.99448309,7.99220575 C5.00349169,6.99844713 4.48200172,6.05537816 4.10071232,5.36688391 C4.06047736,5.29394713 4.02192722,5.22362529 3.98385845,5.15688391 L4.71298166,4.42675172 L5.07144585,4.06677471 C5.51659771,3.62022299 5.52887278,2.90714828 5.10036848,2.47684943 L2.94400745,0.313809195 C2.51550315,-0.115805747 1.80391003,-0.102811494 1.35875817,0.34374023 L0.751021777,0.956722989 L0.767629226,0.973257471 C0.563846991,1.23402759 0.393560458,1.53478621 0.266838395,1.85911954 C0.150024642,2.16788391 0.0772968481,2.46248736 0.0440418338,2.75765402 C-0.240691691,5.12498161 0.837990258,7.28846437 3.76539427,10.2243207 C7.81199599,14.282269 11.072953,13.975677 11.2136751,13.9607517 C11.5199903,13.9239816 11.8136693,13.8506023 12.1120819,13.7343782 C12.4326779,13.6087402 12.7323742,13.438246 12.9922367,13.2342805 L13.0055146,13.246108 L13.6211536,12.6414931 C14.0653828,12.1950218 14.0782596,11.4816655 13.6499158,11.0507632" id="Fill-1"></path>
            </g>
        </g>
    </g>
</svg>