<?xml version="1.0" encoding="UTF-8"?>
<svg width="18px" height="18px" viewBox="0 0 18 18" version="1.1" xmlns="http://www.w3.org/2000/svg" xmlns:xlink="http://www.w3.org/1999/xlink">
    <!-- Generator: Sketch 3.6 (26304) - http://www.bohemiancoding.com/sketch -->
    <title>Page 1</title>
    <desc>Created with Sketch.</desc>
    <defs></defs>
    <g id="Page-1" stroke="none" stroke-width="1" fill="none" fill-rule="evenodd">
        <g id="1-Paso---Preguntas-Frecuentes-Copy-2" transform="translate(-626.000000, -451.000000)" fill="#35445F">
            <g id="Page-1" transform="translate(626.000000, 451.000000)">
                <path d="M14.0295273,12.7063256 C13.8139364,13.3183256 12.7597091,13.9089767 12.2855727,13.9525116 C11.8122545,13.9964651 11.8122545,14.3468372 9.1863,13.2982326 C6.56034545,12.2471163 4.90311818,9.51237209 4.77384545,9.33823256 C4.64416364,9.16409302 3.7188,7.91706977 3.7188,6.62651163 C3.7188,5.33637209 4.38643636,4.70176744 4.62289091,4.43888372 C4.85934545,4.17683721 5.14039091,4.11111628 5.3118,4.11111628 C5.48402727,4.11111628 5.65666364,4.13330233 5.8068,4.13330233 C5.95816364,4.13330233 6.17252727,4.04581395 6.38770909,4.57032558 C6.60248182,5.09567442 7.11998182,6.38623256 7.18420909,6.51725581 C7.24884545,6.64869767 7.29220909,6.80190698 7.20589091,6.97688372 C7.11998182,7.15227907 7.07702727,7.26111628 6.94775455,7.41432558 C6.8193,7.56753488 6.67652727,7.75590698 6.55993636,7.87395349 C6.43148182,8.00455814 6.29607273,8.14562791 6.44702727,8.40809302 C6.59798182,8.67139535 7.11670909,9.52869767 7.88416364,10.2235814 C8.87048182,11.1173023 9.70298182,11.3944186 9.96111818,11.5254419 C10.2196636,11.6560465 10.3702091,11.6346977 10.5203455,11.4588837 C10.6713,11.283907 11.1667091,10.6936744 11.3385273,10.4312093 C11.5103455,10.1687442 11.6838,10.2135349 11.9202545,10.3006047 C12.1567091,10.388093 13.4265273,11.0226977 13.6838455,11.1537209 C13.9423909,11.2843256 14.1142091,11.3508837 14.1796636,11.4588837 C14.2443,11.5677209 14.2443,12.0926512 14.0295273,12.7063256 M8.85902727,0 C3.97366364,0 0.000163636364,4.03534884 0.000163636364,8.99497674 C-0.00106363636,10.8916744 0.590072727,12.7393953 1.68766364,14.2689767 L0.580663636,17.6094419 L3.98470909,16.501814 C5.43248182,17.4746512 7.12693636,17.9924651 8.85902727,17.9899535 C13.7435727,17.9899535 17.7187091,13.9550233 17.7187091,8.99539535 C17.7187091,4.03576744 13.7435727,0 8.85902727,0" id="Fill-1"></path>
            </g>
        </g>
    </g>
</svg>