<?xml version="1.0" encoding="UTF-8"?>
<svg width="18px" height="13px" viewBox="0 0 18 13" version="1.1" xmlns="http://www.w3.org/2000/svg" xmlns:xlink="http://www.w3.org/1999/xlink">
    <!-- Generator: Sketch 3.6 (26304) - http://www.bohemiancoding.com/sketch -->
    <title>Page 1</title>
    <desc>Created with Sketch.</desc>
    <defs>
        <path id="path-1" d="M7.40740734e-06,12.9967143 L17.9707778,12.9967143 L17.9707778,1.42857134e-05 L7.40740734e-06,1.42857134e-05 L7.40740734e-06,12.9967143 L7.40740734e-06,12.9967143 Z"></path>
    </defs>
    <g id="Page-1" stroke="none" stroke-width="1" fill="none" fill-rule="evenodd">
        <g id="1-Paso---Preguntas-Frecuentes-Copy-2" transform="translate(-626.000000, -487.000000)">
            <g id="Page-1" transform="translate(626.000000, 487.000000)">
                <mask id="mask-2" fill="white">
                    <use xlink:href="#path-1"></use>
                </mask>
                <g id="Clip-2"></g>
                <path d="M0.349933333,1.01551429 C0.131637037,1.34962143 7.40740734e-06,1.74208571 7.40740734e-06,2.16622857 L7.40740734e-06,10.8305857 C7.40740734e-06,11.2104786 0.110303704,11.5626214 0.288488889,11.8725143 L5.96193333,5.74965714 L0.349933333,1.01551429 Z M11.1626741,6.46358571 L9.35497037,7.9898 C9.24919259,8.07862143 9.11756296,8.12297857 8.98541481,8.12297857 C8.85319259,8.12297857 8.72152593,8.07862143 8.61578519,7.9898 L6.80763704,6.46351429 L1.06174815,12.6635857 C1.40615556,12.8719071 1.80978519,12.9967286 2.2463037,12.9967286 L15.7244519,12.9967286 C16.1608963,12.9967286 16.5647481,12.8719071 16.9090444,12.6635857 L11.1626741,6.46358571 Z M8.98541481,6.86222857 L16.7951556,0.272942857 C16.4746741,0.103764286 16.1137852,1.42857134e-05 15.7244519,1.42857134e-05 L2.24634074,1.42857134e-05 C1.85656296,1.42857134e-05 1.49556296,0.103764286 1.17637778,0.272942857 L8.98541481,6.86222857 Z M17.9707852,10.83055 C17.9707852,11.2104429 17.8599704,11.5626214 17.6824519,11.8724786 L12.0083037,5.75069286 L17.6208963,1.01555 C17.8392667,1.34965714 17.9707852,1.74212143 17.9707852,2.16622857 L17.9707852,10.83055 Z" id="Fill-1" fill="#35445F" mask="url(#mask-2)"></path>
            </g>
        </g>
    </g>
</svg>