<?xml version="1.0" encoding="UTF-8"?>
<svg width="110px" height="110px" viewBox="0 0 110 110" version="1.1" xmlns="http://www.w3.org/2000/svg" xmlns:xlink="http://www.w3.org/1999/xlink">
    <!-- Generator: Sketch 3.6 (26304) - http://www.bohemiancoding.com/sketch -->
    <title>Group 5 Copy</title>
    <desc>Created with Sketch.</desc>
    <defs>
        <filter x="-50%" y="-50%" width="200%" height="200%" filterUnits="objectBoundingBox" id="filter-1">
            <feOffset dx="6" dy="4" in="SourceAlpha" result="shadowOffsetOuter1"></feOffset>
            <feGaussianBlur stdDeviation="10" in="shadowOffsetOuter1" result="shadowBlurOuter1"></feGaussianBlur>
            <feColorMatrix values="0 0 0 0 0.207843137   0 0 0 0 0.266666667   0 0 0 0 0.37254902  0 0 0 0.7 0" in="shadowBlurOuter1" type="matrix" result="shadowMatrixOuter1"></feColorMatrix>
            <feMerge>
                <feMergeNode in="shadowMatrixOuter1"></feMergeNode>
                <feMergeNode in="SourceGraphic"></feMergeNode>
            </feMerge>
        </filter>
    </defs>
    <g id="Page-1" stroke="none" stroke-width="1" fill="none" fill-rule="evenodd">
        <g id="1-Paso---Preguntas-Frecuentes-Copy-3" transform="translate(-941.000000, -391.000000)">
            <g id="Group-5-Copy" transform="translate(955.000000, 407.000000)">
                <rect id="Rectangle-1015-Copy-3" stroke="#35445F" fill="#FFFFFF" opacity="0.1" filter="url(#filter-1)" x="0" y="0" width="70" height="70" rx="4"></rect>
                <path d="M16.5036331,25.0204935 C16.0267201,25.7726172 15.7391481,26.6561113 15.7391481,27.6109185 L15.7391481,47.115645 C15.7391481,47.970839 15.980113,48.7635638 16.3693951,49.4611776 L28.7641988,35.6777367 L16.5036331,25.0204935 Z M40.1262842,37.2848937 L36.1769845,40.7206237 C35.9458912,40.9205737 35.6583193,41.020428 35.3696145,41.020428 C35.0807479,41.020428 34.7930951,40.9205737 34.5620827,40.7206237 L30.6118121,37.2847329 L18.0587387,51.2419943 C18.8111673,51.7109561 19.6929791,51.9919473 20.6466434,51.9919473 L50.0924239,51.9919473 C51.0459263,51.9919473 51.9282236,51.7109561 52.6804095,51.2419943 L40.1262842,37.2848937 Z M35.3696145,38.1822966 L52.4315958,23.3488573 C51.7314383,22.9680118 50.9430024,22.7344555 50.0924239,22.7344555 L20.6467243,22.7344555 C19.7951747,22.7344555 19.0064961,22.9680118 18.3091706,23.3488573 L35.3696145,38.1822966 Z M55,47.1155646 C55,47.9707586 54.7579023,48.7635638 54.3700767,49.4610972 L41.9737356,35.6800683 L54.2355959,25.0205739 C54.7126708,25.7726976 55,26.6561917 55,27.6109185 L55,47.1155646 Z" id="Fill-1" fill="#35445F"></path>
            </g>
        </g>
    </g>
</svg>