<?xml version="1.0" encoding="UTF-8"?>
<svg width="30px" height="17px" viewBox="0 0 30 17" version="1.1" xmlns="http://www.w3.org/2000/svg" xmlns:xlink="http://www.w3.org/1999/xlink">
    <!-- Generator: Sketch 3.6 (26304) - http://www.bohemiancoding.com/sketch -->
    <title>american_express</title>
    <desc>Created with Sketch.</desc>
    <defs></defs>
    <g id="Page-1" stroke="none" stroke-width="1" fill="none" fill-rule="evenodd">
        <g id="4.3-Paso-Copy-4" transform="translate(-1239.000000, -401.000000)">
            <g id="Group-3" transform="translate(1142.000000, 400.000000)">
                <g id="american_express" transform="translate(97.542683, 0.772727)">
                    <rect id="Rectangle-1762-Copy" stroke="#C9C9C9" x="0.0304878049" y="0.227272727" width="29.4268293" height="17" rx="3"></rect>
                    <rect id="Rectangle-1762-Copy-2" fill="#016FD0" x="0.804878049" y="1" width="27.8780488" height="15.4545455" rx="2"></rect>
                    <path d="M7,16.4545455 L22.4878049,16.4545455 L22.4878049,1 L7,1 L7,16.4545455 Z" id="Fill-1" fill="#016FD0"></path>
                    <path d="M10.0065271,11.7691566 L10.0065271,9.34287879 L12.5811165,9.34287879 L12.8573157,9.70211111 L13.1427215,9.34287879 L22.4878049,9.34287879 L22.4878049,11.6018182 C22.4878049,11.6018182 22.2434417,11.7667525 21.9607893,11.7691566 L16.7861416,11.7691566 L16.4747507,11.3866566 L16.4747507,11.7691566 L15.4541904,11.7691566 L15.4541904,11.1162879 C15.4541904,11.1162879 15.3148001,11.2073838 15.0133902,11.2073838 L14.6660332,11.2073838 L14.6660332,11.7691566 L13.1208665,11.7691566 L12.8450115,11.402197 L12.5649404,11.7691566 L10.0065271,11.7691566" id="Fill-2" fill="#FFFFFF"></path>
                    <path d="M7,7.51409091 L7.5806206,6.16344949 L8.58457453,6.16344949 L8.9141206,6.92003535 L8.9141206,6.16344949 L10.1621795,6.16344949 L10.3583584,6.71028283 L10.5485142,6.16344949 L16.1513137,6.16344949 L16.1513137,6.43836869 C16.1513137,6.43836869 16.4458401,6.16344949 16.9299201,6.16344949 L18.7478442,6.16980303 L19.0716253,6.91642929 L19.0716253,6.16344949 L20.1161057,6.16344949 L20.4035766,6.59239899 L20.4035766,6.16344949 L21.4576938,6.16344949 L21.4576938,8.58981313 L20.4035766,8.58981313 L20.1280657,8.15957576 L20.1280657,8.58981313 L18.5934824,8.58981313 L18.4391206,8.20731313 L18.0266287,8.20731313 L17.8748482,8.58981313 L16.8340678,8.58981313 C16.4175318,8.58981313 16.1513137,8.32047475 16.1513137,8.32047475 L16.1513137,8.58981313 L14.582227,8.58981313 L14.27075,8.20731313 L14.27075,8.58981313 L8.4358916,8.58981313 L8.28161585,8.20731313 L7.87041463,8.20731313 L7.7173435,8.58981313 L7,8.58981313 L7,7.51409091" id="Fill-3" fill="#FFFFFF"></path>
                    <path d="M7.78609214,6.46258081 L7.00301152,8.27934848 L7.51281843,8.27934848 L7.65728523,7.91556566 L8.49724051,7.91556566 L8.64101897,8.27934848 L9.16209756,8.27934848 L8.37970528,6.46258081 L7.78609214,6.46258081 L7.78609214,6.46258081 Z M8.07580014,6.88543434 L8.33177913,7.52113131 L7.8189607,7.52113131 L8.07580014,6.88543434 L8.07580014,6.88543434 Z" id="Fill-4" fill="#016FD0"></path>
                    <path d="M9.2159607,8.27900505 L9.2159607,6.46232323 L9.9404458,6.46498485 L10.3618001,7.63635354 L10.7730874,6.46232323 L11.4918076,6.46232323 L11.4918076,8.27909091 L11.0366382,8.27909091 L11.0366382,6.94038384 L10.554107,8.27909091 L10.1549519,8.27909091 L9.67113008,6.94038384 L9.67113008,8.27909091 L9.2159607,8.27900505" id="Fill-5" fill="#016FD0"></path>
                    <path d="M11.8032846,8.27900505 L11.8032846,6.46232323 L13.288565,6.46232323 L13.288565,6.86869192 L12.2631863,6.86869192 L12.2631863,7.17941414 L13.2645589,7.17941414 L13.2645589,7.56191414 L12.2631863,7.56191414 L12.2631863,7.88465657 L13.288565,7.88465657 L13.288565,8.27900505 L11.8032846,8.27900505" id="Fill-6" fill="#016FD0"></path>
                    <path d="M13.5520298,6.46258081 L13.5520298,8.27934848 L14.0071992,8.27934848 L14.0071992,7.63394949 L14.1989038,7.63394949 L14.7445908,8.27934848 L15.3008611,8.27934848 L14.7019993,7.60999495 C14.9477392,7.58930303 15.2013089,7.37877778 15.2013089,7.052 C15.2013089,6.66967172 14.9005874,6.46258081 14.5649322,6.46258081 L13.5520298,6.46258081 L13.5520298,6.46258081 Z M14.0071992,6.86894949 L14.5275034,6.86894949 C14.6523523,6.86894949 14.743128,6.96639899 14.743128,7.06024242 C14.743128,7.18087374 14.6255068,7.25144949 14.5343008,7.25144949 L14.0071992,7.25144949 L14.0071992,6.86894949 L14.0071992,6.86894949 Z" id="Fill-7" fill="#016FD0"></path>
                    <path d="M15.3870766,8.27909091 L16.0910677,8.27909091 L16.0910677,6.46232323 L15.3870766,6.46232323 L15.3870766,8.27909091 Z" id="Fill-8" fill="#016FD0"></path>
                    <path d="M16.9538401,8.27900505 L16.8535996,8.27900505 C16.368143,8.27900505 16.0734444,7.89744949 16.0734444,7.37809091 C16.0734444,6.84593939 16.3648733,6.46232323 16.9778462,6.46232323 L17.4809417,6.46232323 L17.4809417,6.89256061 L16.9594329,6.89256061 C16.7105955,6.89256061 16.5346369,7.08634343 16.5346369,7.38264141 C16.5346369,7.7344899 16.7358923,7.88225253 17.0257724,7.88225253 L17.1455447,7.88225253 L16.9538401,8.27900505" id="Fill-9" fill="#016FD0"></path>
                    <path d="M17.9442852,6.46258081 L17.1612046,8.27934848 L17.6710115,8.27934848 L17.8155644,7.91556566 L18.6555196,7.91556566 L18.7992981,8.27934848 L19.3202907,8.27934848 L18.5379844,6.46258081 L17.9442852,6.46258081 L17.9442852,6.46258081 Z M18.2339932,6.88543434 L18.4900583,7.52113131 L17.9772398,7.52113131 L18.2339932,6.88543434 L18.2339932,6.88543434 Z" id="Fill-10" fill="#016FD0"></path>
                    <path d="M19.3734654,8.27900505 L19.3734654,6.46232323 L19.952107,6.46232323 L20.6910474,7.60372727 L20.6910474,6.46232323 L21.1462168,6.46232323 L21.1462168,8.27900505 L20.5862466,8.27900505 L19.8286348,7.10772222 L19.8286348,8.27900505 L19.3734654,8.27900505" id="Fill-11" fill="#016FD0"></path>
                    <path d="M10.317918,11.4584343 L10.317918,9.64158081 L11.8032846,9.64158081 L11.8032846,10.0480354 L10.7779058,10.0480354 L10.7779058,10.3587576 L11.7792785,10.3587576 L11.7792785,10.7412576 L10.7779058,10.7412576 L10.7779058,11.064 L11.8032846,11.064 L11.8032846,11.4584343 L10.317918,11.4584343" id="Fill-12" fill="#016FD0"></path>
                    <path d="M17.5958957,11.4584343 L17.5958957,9.64158081 L19.0811762,9.64158081 L19.0811762,10.0480354 L18.0558835,10.0480354 L18.0558835,10.3587576 L19.0524377,10.3587576 L19.0524377,10.7412576 L18.0558835,10.7412576 L18.0558835,11.064 L19.0811762,11.064 L19.0811762,11.4584343 L17.5958957,11.4584343" id="Fill-13" fill="#016FD0"></path>
                    <path d="M11.8608476,11.4584343 L12.584042,10.5612121 L11.8437249,9.64166667 L12.4171179,9.64166667 L12.8580901,10.2101364 L13.3005251,9.64166667 L13.8515467,9.64166667 L13.1208665,10.5500505 L13.8453516,11.4584343 L13.2719587,11.4584343 L12.843893,10.8988939 L12.4260664,11.4584343 L11.8608476,11.4584343" id="Fill-14" fill="#016FD0"></path>
                    <path d="M13.8994729,9.64192424 L13.8994729,11.4587778 L14.3666023,11.4587778 L14.3666023,10.8849848 L14.8456917,10.8849848 C15.251128,10.8849848 15.5583889,10.6704242 15.5583889,10.2530657 C15.5583889,9.90722727 15.3173814,9.64192424 14.9048896,9.64192424 L13.8994729,9.64192424 L13.8994729,9.64192424 Z M14.3666023,10.0528434 L14.8711606,10.0528434 C15.0021186,10.0528434 15.0957337,10.1328636 15.0957337,10.2619949 C15.0957337,10.3832273 15.0025488,10.4711465 14.8696978,10.4711465 L14.3666023,10.4711465 L14.3666023,10.0528434 L14.3666023,10.0528434 Z" id="Fill-15" fill="#016FD0"></path>
                    <path d="M15.7560305,9.64158081 L15.7560305,11.4584343 L16.2111999,11.4584343 L16.2111999,10.8129495 L16.4029045,10.8129495 L16.9485915,11.4584343 L17.5048618,11.4584343 L16.905914,10.7890808 C17.1517398,10.7683889 17.4053096,10.5578636 17.4053096,10.231 C17.4053096,9.84875758 17.1045881,9.64166667 16.7689329,9.64166667 L15.7560305,9.64158081 L15.7560305,9.64158081 Z M16.2111999,10.0480354 L16.7315041,10.0480354 C16.856353,10.0480354 16.9471287,10.1454848 16.9471287,10.2392424 C16.9471287,10.3599596 16.8295075,10.4305354 16.7382154,10.4305354 L16.2111999,10.4305354 L16.2111999,10.0480354 L16.2111999,10.0480354 Z" id="Fill-16" fill="#016FD0"></path>
                    <path d="M19.2919824,11.4584343 L19.2919824,11.064 L20.2029234,11.064 C20.3377534,11.064 20.3960908,10.9912778 20.3960908,10.911601 C20.3960908,10.8351869 20.3379255,10.758 20.2029234,10.758 L19.791292,10.758 C19.4335237,10.758 19.2342473,10.5404343 19.2342473,10.2139141 C19.2342473,9.92259596 19.4167453,9.64166667 19.9484072,9.64166667 L20.8348259,9.64166667 L20.6431213,10.0504394 L19.876561,10.0504394 C19.7300291,10.0504394 19.6848564,10.127197 19.6848564,10.2004343 C19.6848564,10.2757323 19.7406125,10.3587576 19.8525549,10.3587576 L20.2838042,10.3587576 C20.6827012,10.3587576 20.8557344,10.5845657 20.8557344,10.8802626 C20.8557344,11.1981111 20.6629112,11.4584343 20.2621213,11.4584343 L19.2919824,11.4584343" id="Fill-17" fill="#016FD0"></path>
                    <path d="M20.9626003,11.4584343 L20.9626003,11.064 L21.8349939,11.064 C21.9697378,11.064 22.0281612,10.9912778 22.0281612,10.911601 C22.0281612,10.8351869 21.9699099,10.758 21.8349939,10.758 L21.4619099,10.758 C21.1040556,10.758 20.9047791,10.5404343 20.9047791,10.2139141 C20.9047791,9.92259596 21.0872771,9.64166667 21.6190251,9.64166667 L22.4878049,9.64166667 L22.2961863,10.0504394 L21.5471789,10.0504394 C21.400561,10.0504394 21.3554743,10.127197 21.3554743,10.2004343 C21.3554743,10.2757323 21.4112304,10.3587576 21.5231728,10.3587576 L21.9157886,10.3587576 C22.3146856,10.3587576 22.4878049,10.5845657 22.4878049,10.8802626 C22.4878049,11.1981111 22.2948957,11.4584343 21.8941057,11.4584343 L20.9626003,11.4584343" id="Fill-18" fill="#016FD0"></path>
                </g>
            </g>
        </g>
    </g>
</svg>