<?xml version="1.0" encoding="UTF-8"?>
<svg width="17px" height="17px" viewBox="0 0 17 17" version="1.1" xmlns="http://www.w3.org/2000/svg" xmlns:xlink="http://www.w3.org/1999/xlink">
    <!-- Generator: Sketch 3.6 (26304) - http://www.bohemiancoding.com/sketch -->
    <title>Page 1</title>
    <desc>Created with Sketch.</desc>
    <defs></defs>
    <g id="Page-1" stroke="none" stroke-width="1" fill="none" fill-rule="evenodd">
        <g id="Mobile-1-Completo-Copy" transform="translate(-220.000000, -830.000000)" fill="#35445F">
            <g id="Page-1" transform="translate(220.000000, 830.000000)">
                <path d="M13.515,13.0815 C13.2952143,12.4002857 12.6577143,11.8987857 11.9,11.8987857 L11.05,11.8987857 L11.05,9.35 C11.05,8.88007143 10.6699286,8.5 10.2012143,8.5 L5.1,8.5 L5.1,6.8 L6.80121429,6.8 C7.26871429,6.8 7.65,6.41871429 7.65,5.94878571 L7.65,4.25 L9.35,4.25 C10.2886429,4.25 11.05,3.48864286 11.05,2.55 L11.05,2.2015 C13.5405,3.2045 15.3,5.644 15.3,8.5 C15.3,10.268 14.62,11.8745 13.515,13.0815 M7.65,15.2392857 C4.2925,14.8227857 1.7,11.9667857 1.7,8.5 C1.7,7.97178571 1.768,7.463 1.8785,6.9785 L5.95,11.0487857 L5.95,11.8987857 C5.95,12.8374286 6.71135714,13.6 7.65,13.6 M8.5,0 C3.80557143,0 0,3.80435714 0,8.5 C0,13.1944286 3.80557143,17 8.5,17 C13.1944286,17 17,13.1944286 17,8.5 C17,3.80435714 13.1944286,0 8.5,0" id="Fill-1"></path>
            </g>
        </g>
    </g>
</svg>