<?xml version="1.0" encoding="UTF-8"?>
<svg width="70px" height="52px" viewBox="0 0 70 52" version="1.1" xmlns="http://www.w3.org/2000/svg" xmlns:xlink="http://www.w3.org/1999/xlink">
    <!-- Generator: Sketch 3.6 (26304) - http://www.bohemiancoding.com/sketch -->
    <title>Page 1</title>
    <desc>Created with Sketch.</desc>
    <defs>
        <linearGradient x1="50%" y1="0%" x2="50%" y2="100%" id="linearGradient-1">
            <stop stop-color="#15BAFF" offset="0%"></stop>
            <stop stop-color="#0984FF" offset="100%"></stop>
        </linearGradient>
        <path id="path-2" d="M2.88065839e-05,51.9868571 L69.886358,51.9868571 L69.886358,5.7142855e-05 L2.88065839e-05,5.7142855e-05 L2.88065839e-05,51.9868571 L2.88065839e-05,51.9868571 Z"></path>
    </defs>
    <g id="Page-1" stroke="none" stroke-width="1" fill="none" fill-rule="evenodd">
        <g id="3-Paso---Iniciar-Sesión3" transform="translate(-828.000000, -318.000000)">
            <g id="Page-1" transform="translate(828.000000, 318.000000)">
                <mask id="mask-3" fill="white">
                    <use xlink:href="#path-2"></use>
                </mask>
                <g id="Clip-2"></g>
                <path d="M1.36085185,4.06205714 C0.511921811,5.39848571 2.88065839e-05,6.96834286 2.88065839e-05,8.66491429 L2.88065839e-05,43.3223429 C2.88065839e-05,44.8419143 0.428958848,46.2504857 1.12190123,47.4900571 L23.1852963,22.9986286 L1.36085185,4.06205714 Z M43.4103992,25.8543429 L36.3804403,31.9592 C35.9690823,32.3144857 35.4571893,32.4919143 34.9432798,32.4919143 C34.4290823,32.4919143 33.9170453,32.3144857 33.5058313,31.9592 L26.474144,25.8540571 L4.12902058,50.6543429 C5.46838272,51.4876286 7.0380535,51.9869143 8.73562551,51.9869143 L61.1506461,51.9869143 C62.84793,51.9869143 64.418465,51.4876286 65.7573951,50.6543429 L43.4103992,25.8543429 Z M34.9432798,27.4489143 L65.3144938,1.09177143 C64.068177,0.415057143 62.6647202,5.7142855e-05 61.1506461,5.7142855e-05 L8.73576955,5.7142855e-05 C7.21996708,5.7142855e-05 5.81607819,0.415057143 4.57480247,1.09177143 L34.9432798,27.4489143 Z M69.8863868,43.3222 C69.8863868,44.8417714 69.4554403,46.2504857 68.7650905,47.4899143 L46.6989588,23.0027714 L68.5257078,4.0622 C69.3749259,5.39862857 69.8863868,6.96848571 69.8863868,8.66491429 L69.8863868,43.3222 Z" id="Fill-1" fill="url(#linearGradient-1)" mask="url(#mask-3)"></path>
            </g>
        </g>
    </g>
</svg>