<?xml version="1.0" encoding="UTF-8"?>
<svg width="20px" height="12px" viewBox="0 0 20 12" version="1.1" xmlns="http://www.w3.org/2000/svg" xmlns:xlink="http://www.w3.org/1999/xlink">
    <!-- Generator: Sketch 3.6 (26304) - http://www.bohemiancoding.com/sketch -->
    <title>Page 1</title>
    <desc>Created with Sketch.</desc>
    <defs></defs>
    <g id="Page-1" stroke="none" stroke-width="1" fill="none" fill-rule="evenodd" opacity="0.3">
        <g id="2-Paso---Paso2" transform="translate(-1308.000000, -376.000000)" fill="#35445F">
            <g id="Page-1" transform="translate(1308.000000, 376.000000)">
                <path d="M14.7506562,9.00792952 C15.2965879,8.11982379 15.6325459,7.08370044 15.6325459,5.98414097 C15.6325459,4.86343612 15.3175853,3.82731278 14.7506562,2.96035242 C16.4304462,3.99647577 17.7112861,5.30748899 18.32021,5.98414097 C17.7112861,6.66079295 16.4304462,7.97180617 14.7506562,9.00792952 M9.98425197,10.2343612 C7.65354331,10.2343612 5.74278215,8.33127753 5.74278215,5.98414097 C5.74278215,3.63700441 7.65354331,1.71277533 9.98425197,1.71277533 C12.3150131,1.71277533 14.2047769,3.63700441 14.2047769,5.98414097 C14.2047769,8.33127753 12.3150131,10.2343612 9.98425197,10.2343612 M5.21784777,9.00792952 C3.53805774,7.95066079 2.25721785,6.63964758 1.64829396,5.98414097 C2.25721785,5.30748899 3.53805774,3.99647577 5.21784777,2.96035242 C4.67191601,3.82731278 4.33595801,4.8845815 4.33595801,5.98414097 C4.33595801,7.10484581 4.67191601,8.14096916 5.21784777,9.00792952 M19.8110236,5.54008811 C19.6220472,5.32863436 15.3805774,0 9.98425197,0 C4.58792651,0 0.346456693,5.32863436 0.157480315,5.54008811 C-0.0524934383,5.7938326 -0.0524934383,6.15330396 0.157480315,6.42819383 C0.346456693,6.66079295 4.58792651,11.9682819 9.98425197,11.9682819 C15.3805774,11.9682819 19.6220472,6.66079295 19.8110236,6.42819383 C20,6.17444934 20,5.7938326 19.8110236,5.54008811" id="Fill-1"></path>
                <path d="M12.7559055,5.9841304 C12.7559055,7.52774273 11.5170604,8.77531982 9.98425197,8.77531982 C8.45144357,8.77531982 7.21259843,7.52774273 7.21259843,5.9841304 C7.21259843,5.51893216 7.3175853,5.09602467 7.52755906,4.69426256 C7.67454068,5.28633304 8.19947507,5.7303859 8.82939633,5.7303859 C9.58530184,5.7303859 10.1732283,5.11717004 10.1732283,4.37708194 C10.1732283,3.89073833 9.92125984,3.46783084 9.54330709,3.23523172 C9.69028871,3.21408634 9.83727034,3.19294097 9.98425197,3.19294097 C11.5170604,3.19294097 12.7559055,4.44051806 12.7559055,5.9841304" id="Fill-3"></path>
            </g>
        </g>
    </g>
</svg>