<?xml version="1.0" encoding="utf-8"?>
<!-- Generator: Adobe Illustrator 16.0.0, SVG Export Plug-In . SVG Version: 6.00 Build 0)  -->
<!DOCTYPE svg PUBLIC "-//W3C//DTD SVG 1.1//EN" "http://www.w3.org/Graphics/SVG/1.1/DTD/svg11.dtd">
<svg version="1.1" id="Capa_1" xmlns="http://www.w3.org/2000/svg" xmlns:xlink="http://www.w3.org/1999/xlink" x="0px" y="0px"
	 width="20px" height="18px" viewBox="0 1.5 20 18" enable-background="new 0 1.5 20 18" xml:space="preserve">
<title>Group 4</title>
<desc>Created with Sketch.</desc>
<g>
	<path fill="#35445F" d="M1.672,11.116c0.609-0.677,1.89-1.988,3.569-3.024C4.696,8.959,4.36,10.017,4.36,11.116
		c0,0.836,0.188,1.624,0.509,2.33l0.963-1.604c-0.042-0.235-0.065-0.478-0.065-0.726c0-1.881,1.235-3.472,2.923-4.037l1.163-1.938
		c-5.321,0.103-9.483,5.321-9.671,5.531c-0.21,0.254-0.21,0.613,0,0.888c0.108,0.133,1.551,1.917,3.764,3.427l0.733-1.222
		C3.277,12.788,2.211,11.696,1.672,11.116z"/>
	<path fill="#35445F" d="M19.834,10.672c-0.145-0.162-2.668-3.317-6.263-4.79l1.315-2.245l0.505-0.863L14.069,2L4.392,18.128
		L5.881,19l0.506-0.862l0.872-1.487c0.87,0.277,1.79,0.45,2.749,0.45c5.396,0,9.637-5.309,9.826-5.541
		C20.023,11.306,20.023,10.926,19.834,10.672z M10.008,15.366c-0.63,0-1.224-0.148-1.764-0.397l0.74-1.263
		c0.317,0.127,0.661,0.201,1.023,0.201c1.533,0,2.771-1.248,2.771-2.791c0-0.869-0.401-1.636-1.018-2.147l0.746-1.274
		c1.039,0.78,1.721,2.021,1.721,3.421C14.229,13.463,12.338,15.366,10.008,15.366z M14.773,14.14
		c0.547-0.889,0.883-1.924,0.883-3.023c0-1.121-0.315-2.157-0.883-3.024c1.681,1.036,2.961,2.347,3.57,3.024
		C17.734,11.792,16.454,13.104,14.773,14.14z"/>
</g>
</svg>
