<?xml version="1.0" encoding="utf-8"?>
<!-- Generator: Adobe Illustrator 16.0.0, SVG Export Plug-In . SVG Version: 6.00 Build 0)  -->
<?xml-stylesheet type="text/css" href="../../css/standardFront.css"?>
<!DOCTYPE svg PUBLIC "-//W3C//DTD SVG 1.1//EN" "http://www.w3.org/Graphics/SVG/1.1/DTD/svg11.dtd">
<svg version="1.1" id="svgSignature" xmlns="http://www.w3.org/2000/svg" xmlns:xlink="http://www.w3.org/1999/xlink" x="0px" y="0px"
	 width="480px" height="480px" viewBox="0 0 480 480" enable-background="new 0 0 480 480" xml:space="preserve">
<path fill="rgba(53, 68, 95, 0.6)" d="M479.117,113.822c-1.651-6.144-5.683-11.381-11.197-14.556c-5.519-3.191-12.08-4.054-18.234-2.402
	c-6.147,1.656-11.385,5.683-14.561,11.197l-3.999,6.96c-3.801-2.184-8.655-0.898-10.877,2.882l-20.317,34.631l-6.96-4
	c-1.843-1.066-4.038-1.355-6.092-0.801c-2.059,0.559-3.809,1.91-4.867,3.761c-2.167,3.824-0.847,8.682,2.961,10.877l6.96,4
	l-67.988,117.819l-16.799,44.875l-7.998,14.955c-4.684,8.146-4.184,18.273,1.281,25.918l-17.997,22.074l-5.038-12.635
	c-2.273-5.633-7.534-9.49-13.584-9.963c-6.054-0.477-11.854,2.515-14.975,7.721l-2.878,4.878l-2.718-31.994
	c-0.625-7.569-6.488-13.654-14.025-14.567c-7.542-0.91-14.681,3.608-17.091,10.811l-19.676,59.028
	c-1.375,4.175,0.875,8.675,5.038,10.08c0.781,0.363,1.621,0.582,2.48,0.637c3.437,0.012,6.499-2.179,7.601-5.437l19.594-59.029
	l2.8,32.472c0.578,6.929,5.558,12.689,12.33,14.259c6.771,1.57,13.779-1.413,17.344-7.377l2.961-4.883l4.961,12.561
	c2.104,5.292,6.865,9.069,12.501,9.909c5.636,0.839,11.291-1.383,14.853-5.831l18.638-23.594c2.062,0.539,4.188,0.809,6.319,0.801
	c8.573,0.066,16.532-4.449,20.876-11.842l7.998-13.357l30.476-37.033l68.707-119.26l6.96,3.999c1.854,1.062,3.206,2.816,3.757,4.882
	c0.555,2.05,0.266,4.237-0.797,6.077l-31.994,55.432c-1.207,1.819-1.617,4.054-1.133,6.187c0.484,2.129,1.816,3.968,3.69,5.089
	c1.844,1.07,4.039,1.359,6.093,0.805c2.059-0.559,3.809-1.91,4.866-3.761l31.995-55.433c3.19-5.519,4.054-12.08,2.397-18.235
	c-1.655-6.147-5.683-11.385-11.197-14.56l-6.959-4l19.996-34.635c2.184-3.8,0.898-8.651-2.878-10.877l3.999-6.959
	C479.996,126.773,480.863,120.079,479.117,113.822z M448.963,116.06c1.059-1.851,2.815-3.207,4.882-3.757
	c2.054-0.508,4.226-0.223,6.077,0.8c1.854,1.059,3.206,2.816,3.761,4.878c0.508,2.054,0.223,4.226-0.801,6.077l-3.999,6.96
	l-13.92-7.999L448.963,116.06z M339.942,339.385l-4-2.319l-11.838-6.882l11.358-30.393l25.194,14.556L339.942,339.385z
	 M315.946,362.498c-3.378-2.354-4.417-6.885-2.398-10.479l4-6.955l13.915,7.998l-3.999,6.878c-1.121,1.945-3.004,3.327-5.194,3.815
	C320.078,364.24,317.786,363.787,315.946,362.498z M369.777,301.232l-27.676-15.998l63.989-110.864l27.675,15.997L369.777,301.232z
	 M441.765,176.53l-27.675-15.997l15.997-27.675l27.675,15.998L441.765,176.53z"/>
<path fill="rgba(53, 68, 95, 0.6)"  d="M126.217,358.5l-28.312,28.236l-16.958-16.957c-3.121-3.102-8.159-3.102-11.279,0
	c-1.516,1.503-2.367,3.546-2.367,5.678c0,2.133,0.851,4.18,2.367,5.68l16.958,16.957c3,2.977,7.053,4.645,11.279,4.641
	c4.249,0.023,8.338-1.645,11.357-4.641l28.233-28.314c2.718-3.176,2.535-7.905-0.418-10.857
	C134.122,355.965,129.392,355.781,126.217,358.5z"/>
<path fill="rgba(53, 68, 95, 0.6)" d="M31.995,380.016c0,37.552,30.44,67.988,67.988,67.988s67.988-30.437,67.988-67.988
	c0-4.418-3.581-7.999-7.999-7.999c-4.417,0-7.999,3.581-7.999,7.999c0,28.714-23.277,51.991-51.991,51.991
	s-51.991-23.277-51.991-51.991c0-28.715,23.277-51.992,51.991-51.992c11.256-0.031,22.211,3.621,31.194,10.401
	c3.535,2.651,8.549,1.933,11.197-1.602c2.652-3.534,1.938-8.546-1.597-11.197c-20.602-15.45-48.167-17.935-71.199-6.421
	C46.543,330.723,31.995,354.266,31.995,380.016z"/>
<path fill="rgba(53, 68, 95, 0.6)" d="M287.951,64.069c4.417,0,7.998-3.577,7.998-7.999c0-4.417-3.581-7.999-7.998-7.999H79.986
	c-4.417,0-7.999,3.582-7.999,7.999v31.995c0,4.421,3.582,7.999,7.999,7.999h207.965c4.417,0,7.998-3.577,7.998-7.999
	c0-4.417-3.581-7.999-7.998-7.999H87.985V64.069H287.951z"/>
<path fill="rgba(53, 68, 95, 0.6)" d="M103.982,112.061c-4.417,0-7.999,3.581-7.999,7.999c0,4.421,3.581,7.999,7.999,7.999h159.973
	c4.417,0,7.998-3.578,7.998-7.999c0-4.417-3.581-7.999-7.998-7.999H103.982z"/>
<path fill="rgba(53, 68, 95, 0.6)" d="M311.947,168.051h-175.97c-4.417,0-7.999,3.582-7.999,7.999c0,4.421,3.582,7.999,7.999,7.999h175.97
	c4.417,0,7.998-3.578,7.998-7.999C319.945,171.633,316.364,168.051,311.947,168.051z"/>
<path fill="rgba(53, 68, 95, 0.6)" d="M231.96,224.042c0-4.417-3.582-7.999-7.999-7.999H63.989c-4.417,0-7.999,3.582-7.999,7.999
	c0,4.421,3.582,7.999,7.999,7.999h159.973C228.379,232.041,231.96,228.463,231.96,224.042z"/>
<path fill="rgba(53, 68, 95, 0.6)" d="M311.947,216.043h-55.99c-4.418,0-7.999,3.582-7.999,7.999c0,4.421,3.581,7.999,7.999,7.999h55.99
	c4.417,0,7.998-3.578,7.998-7.999C319.945,219.625,316.364,216.043,311.947,216.043z"/>
<path fill="rgba(53, 68, 95, 0.6)" d="M143.976,272.033c4.417,0,7.999-3.577,7.999-7.998c0-4.418-3.582-7.999-7.999-7.999H63.989
	c-4.417,0-7.999,3.581-7.999,7.999c0,4.421,3.582,7.998,7.999,7.998H143.976z"/>
<path fill="rgba(53, 68, 95, 0.6)" d="M175.97,272.033h55.99c4.417,0,7.999-3.577,7.999-7.998c0-4.418-3.581-7.999-7.999-7.999h-55.99
	c-4.417,0-7.999,3.581-7.999,7.999C167.971,268.456,171.553,272.033,175.97,272.033z"/>
<path fill="rgba(53, 68, 95, 0.6)" d="M359.938,368.018c-4.417,0-7.998,3.581-7.998,7.998v79.986c0,4.422-3.582,7.999-7.999,7.999H23.996
	c-4.417,0-7.999-3.577-7.999-7.999V24.076c0-4.417,3.582-7.999,7.999-7.999h319.945c4.417,0,7.999,3.582,7.999,7.999v150.217
	c0,4.417,3.581,7.999,7.998,7.999s7.999-3.582,7.999-7.999V24.076c0-13.251-10.744-23.996-23.996-23.996H23.996
	C10.744,0.08,0,10.824,0,24.076v431.926c0,13.256,10.744,23.996,23.996,23.996h319.945c13.252,0,23.996-10.74,23.996-23.996v-79.986
	C367.938,371.599,364.355,368.018,359.938,368.018z"/>
</svg>
