<?xml version="1.0" encoding="UTF-8"?>
<svg width="30px" height="17px" viewBox="0 0 30 17" version="1.1" xmlns="http://www.w3.org/2000/svg" xmlns:xlink="http://www.w3.org/1999/xlink">
    <!-- Generator: Sketch 3.6 (26304) - http://www.bohemiancoding.com/sketch -->
    <title>mastercard(1)</title>
    <desc>Created with Sketch.</desc>
    <defs></defs>
    <g id="Page-1" stroke="none" stroke-width="1" fill="none" fill-rule="evenodd">
        <g id="4.3-Paso-Copy-4" transform="translate(-1174.000000, -401.000000)">
            <g id="Group-3" transform="translate(1142.000000, 400.000000)">
                <g id="mastercard(1)" transform="translate(32.493902, 0.863636)">
                    <rect id="Rectangle-1762" stroke="#C9C9C9" fill="#FFFFFF" x="0.0304878049" y="0.136363636" width="29.4268293" height="17" rx="3"></rect>
                    <g id="Capa_1" transform="translate(7.000000, 4.000000)">
                        <g id="Group">
                            <path d="M5.65296341,4.63416434 C5.65296341,3.16098951 6.32364024,1.84937413 7.3678872,1.00056294 C6.59786585,0.374653846 5.62515854,0 4.56654573,0 C2.07233232,0 0.0503963415,2.07483217 0.0503963415,4.63416434 C0.0503963415,7.1934965 2.07239024,9.26838811 4.56660366,9.26838811 C5.62521646,9.26838811 6.59792378,8.89367483 7.36794512,8.26776573 C6.32369817,7.41895455 5.65296341,6.1073986 5.65296341,4.63416434" id="Shape" fill="#E30D17"></path>
                            <path d="M5.65296341,4.63416434 C5.65296341,6.10733916 6.32364024,7.41895455 7.3678872,8.26776573 C8.41207622,7.41895455 9.08275305,6.10733916 9.08275305,4.63416434 C9.08275305,3.16098951 8.41207622,1.84937413 7.3678872,1.00056294 C6.32369817,1.84943357 5.65296341,3.16098951 5.65296341,4.63416434" id="Shape" fill="#EB610A"></path>
                            <path d="M10.1692287,0 C9.11061585,0 8.13790854,0.374713287 7.36794512,1.00062238 C8.41213415,1.84949301 9.08281098,3.16104895 9.08281098,4.63422378 C9.08281098,6.1073986 8.41213415,7.41901399 7.36794512,8.26782517 C8.13790854,8.89373427 9.11061585,9.26844755 10.1692287,9.26844755 C12.6634421,9.26844755 14.685436,7.19361538 14.685436,4.63422378 C14.685436,2.07477273 12.6633841,0 10.1692287,0" id="Shape" fill="#F69F00"></path>
                        </g>
                    </g>
                </g>
            </g>
        </g>
    </g>
</svg>