<?xml version="1.0" encoding="UTF-8"?>
<svg width="14px" height="14px" viewBox="0 0 14 14" version="1.1" xmlns="http://www.w3.org/2000/svg" xmlns:xlink="http://www.w3.org/1999/xlink">
    <!-- Generator: Sketch 3.6 (26304) - http://www.bohemiancoding.com/sketch -->
    <title>002-calendar</title>
    <desc>Created with Sketch.</desc>
    <defs></defs>
    <g id="Page-1" stroke="none" stroke-width="1" fill="none" fill-rule="evenodd">
        <g id="1-Paso---Fecha-lejos" transform="translate(-885.000000, -315.000000)" fill="#35445F">
            <g id="002-calendar" transform="translate(885.000000, 315.000000)">
                <path d="M12.25,1.75 L11.6667023,1.75 L11.6667023,0.583297723 C11.6667023,0.261367805 11.4053345,0 11.0832977,0 L10.5,0 C10.1779633,0 9.91670228,0.261367805 9.91670228,0.583297723 L9.91670228,1.75 L4.08329772,1.75 L4.08329772,0.583297723 C4.08329772,0.261367805 3.82203675,0 3.5,0 L2.91670228,0 C2.59466553,0 2.33329772,0.261367805 2.33329772,0.583297723 L2.33329772,1.75 L1.75,1.75 C0.785171516,1.75 0,2.53517152 0,3.5 L0,12.25 C0,13.2148285 0.785171516,14 1.75,14 L12.25,14 C13.2148285,14 14,13.2148285 14,12.25 L14,3.5 C14,2.53517152 13.2148285,1.75 12.25,1.75 L12.25,1.75 Z M12.8332977,12.25 C12.8332977,12.5713959 12.5713959,12.8332977 12.25,12.8332977 L1.75,12.8332977 C1.42860413,12.8332977 1.16670228,12.5713959 1.16670228,12.25 L1.16670228,5.85668945 L12.8332977,5.85668945 L12.8332977,12.25 Z" id="Shape"></path>
            </g>
        </g>
    </g>
</svg>