<?xml version="1.0" encoding="UTF-8"?>
<svg width="14px" height="14px" viewBox="0 0 14 14" version="1.1" xmlns="http://www.w3.org/2000/svg" xmlns:xlink="http://www.w3.org/1999/xlink">
    <!-- Generator: Sketch 3.6 (26304) - http://www.bohemiancoding.com/sketch -->
    <title>Page 1</title>
    <desc>Created with Sketch.</desc>
    <defs></defs>
    <g id="Page-1" stroke="none" stroke-width="1" fill="none" fill-rule="evenodd">
        <g id="1-Paso---Preguntas-Frecuentes-Copy-2" transform="translate(-1126.000000, -118.000000)" fill="#35445F">
            <path d="M1134.60601,124.9731 L1139.62901,119.9511 C1139.84601,119.7341 1139.96601,119.4461 1139.96601,119.1391 C1139.96601,118.8311 1139.84601,118.5431 1139.62901,118.3271 C1139.19501,117.8921 1138.43901,117.8921 1138.00401,118.3271 L1132.98301,123.3491 L1127.96001,118.3271 C1127.52601,117.8921 1126.76801,117.8951 1126.33801,118.3251 C1126.12001,118.5411 1126.00001,118.8301 1126.00001,119.1381 C1126.00001,119.4461 1126.12001,119.7351 1126.33601,119.9501 L1131.36001,124.9721 L1126.33601,129.9941 C1126.11801,130.2111 1125.99901,130.5011 1126.00001,130.8101 C1126.00101,131.1171 1126.12101,131.4051 1126.33501,131.6171 C1126.76701,132.0511 1127.52501,132.0521 1127.96001,131.6181 L1132.98301,126.5981 L1138.00401,131.6191 C1138.22201,131.8361 1138.51101,131.9561 1138.81701,131.9561 C1139.12301,131.9561 1139.41201,131.8361 1139.62701,131.6201 C1139.84501,131.4061 1139.96501,131.1181 1139.96601,130.8111 C1139.96701,130.5021 1139.84801,130.2121 1139.62901,129.9941 L1134.60601,124.9731 Z" id="Page-1"></path>
        </g>
    </g>
</svg>