<?xml version="1.0" encoding="UTF-8"?>
<svg width="140px" height="28px" viewBox="0 0 140 28" version="1.1" xmlns="http://www.w3.org/2000/svg" xmlns:xlink="http://www.w3.org/1999/xlink">
    <!-- Generator: Sketch 3.6 (26304) - http://www.bohemiancoding.com/sketch -->
    <title>Page 1</title>
    <desc>Created with Sketch.</desc>
    <defs>
        <path id="path-1" d="M3.43912374e-20,0.363397891 L3.43912374e-20,20.0751053 L13.3701393,20.0751053 L13.3701393,0.363397891 L0,0.363397891 L3.43912374e-20,0.363397891 Z"></path>
        <path id="path-3" d="M0.249548214,27.8063408 L15.738691,27.8063408 L15.738691,0.447447555 L0.249548214,0.447447555 L0.249548214,27.8063408 L0.249548214,27.8063408 Z"></path>
    </defs>
    <g id="Page-1" stroke="none" stroke-width="1" fill="none" fill-rule="evenodd">
        <g id="1-Paso---Home" transform="translate(-252.000000, -711.000000)">
            <g id="Page-1" transform="translate(252.000000, 711.000000)">
                <path d="M41.3052842,9.17776083 C41.9412131,9.17776083 42.4883252,9.26977454 42.9466203,9.45380196 C43.405423,9.63833495 43.7825141,9.89617556 44.0784013,10.2273238 C44.3737809,10.5589776 44.5960768,10.9533221 44.7437666,11.4093461 C44.8914564,11.8663812 44.9655551,12.3598174 44.9655551,12.8901601 C44.9655551,13.5089776 44.8914564,14.1207171 44.7437666,14.7243675 L43.2354021,21.0005113 L39.9298912,21.0005113 L41.3941011,14.8568267 C41.452974,14.6065697 41.5082942,14.3411455 41.5600618,14.0615654 C41.6118293,13.7819853 41.6382207,13.5170667 41.6382207,13.2657985 C41.6382207,12.8825766 41.5382382,12.5549673 41.3387809,12.2824652 C41.138816,12.0104686 40.7576646,11.8739647 40.1958344,11.8739647 C39.9593277,11.8739647 39.733479,11.8886263 39.5193034,11.9179493 C39.3046203,11.9477779 39.0939974,11.984179 38.8874347,12.0281635 L36.7355283,21.0005113 L33.4295099,21.0005113 L37.4227173,4.3819254 L40.8617073,3.85158265 L39.5081379,9.39818928 C39.804025,9.33954317 40.1034648,9.28797505 40.4069648,9.24399048 C40.7099573,9.19950033 41.0093971,9.17776083 41.3052842,9.17776083" id="Fill-1" fill="#35445F"></path>
                <path d="M54.5936612,11.9181515 C54.4013092,11.8883229 54.2277356,11.8660779 54.0724329,11.8514163 C53.9171303,11.8372604 53.7283309,11.8291713 53.5065425,11.8291713 C53.0035851,11.8291713 52.5341244,11.9545526 52.0976528,12.2048096 C51.6611813,12.4555723 51.2805375,12.7836871 50.9552139,13.1886485 C50.6298903,13.59361 50.3746052,14.0612621 50.1898661,14.5916048 C50.0051269,15.1224531 49.9127574,15.6745354 49.9127574,16.2488627 C49.9127574,16.9566605 50.0310107,17.5163263 50.2675174,17.9293768 C50.5040241,18.3409107 50.9404957,18.5471832 51.5764246,18.5471832 C51.9164664,18.5471832 52.2235191,18.4809535 52.4970751,18.3489998 C52.7706311,18.2160349 53.0629656,17.9956065 53.3735709,17.6851866 C53.4030074,17.3181429 53.4512222,16.931382 53.517708,16.5254094 C53.5841938,16.1209536 53.6542323,15.7483486 53.7283309,15.4091112 L54.5936612,11.9181515 Z M56.9008702,15.9844497 C56.6938,16.8236956 56.6344196,17.6674917 56.7232365,18.5148267 C56.8120533,19.3621617 56.9820742,20.1169775 57.2338067,20.779274 L54.2830559,21.1988969 C54.194239,21.0229586 54.1130349,20.8540983 54.0389363,20.6918104 C53.9648376,20.5290169 53.8912465,20.3454951 53.8171478,20.1392226 C53.4030074,20.4779544 52.9442047,20.7575345 52.4417548,20.9789741 C51.9387975,21.1988969 51.3769672,21.3096167 50.7557565,21.3096167 C50.0162925,21.3096167 49.3839162,21.1806964 48.8591353,20.9233614 C48.3338468,20.6660263 47.9049881,20.3192054 47.5720517,19.884921 C47.2396227,19.4496253 46.9990559,18.9420332 46.8513661,18.3596168 C46.7031687,17.7782115 46.6295776,17.1548439 46.6295776,16.4925474 C46.6295776,15.4753409 46.8102565,14.5188028 47.1726294,13.6188885 C47.5350023,12.7209964 48.0379597,11.9363521 48.6815015,11.266472 C49.3245358,10.5960864 50.0827783,10.0692827 50.9552139,9.68606074 C51.828157,9.3028388 52.7746913,9.11173341 53.7948167,9.11173341 C53.9282958,9.11173341 54.1612498,9.11881139 54.4936788,9.13347291 C54.8266152,9.14813444 55.207259,9.18150205 55.6361177,9.2325646 C56.0649764,9.28514386 56.5161662,9.36856288 56.9896871,9.48686622 C57.4627005,9.60567513 57.9138903,9.76695191 58.342749,9.97271883 L56.9008702,15.9844497 Z" id="Fill-3" fill="#35445F"></path>
                <path d="M67.9263452,12.2054669 C67.630458,12.1316537 67.3391386,12.0613795 67.0498493,11.9951498 C66.7620826,11.9284146 66.3362691,11.8960581 65.7744388,11.8960581 C65.5673686,11.8960581 65.3379672,11.9147642 65.0867423,11.9506597 C64.8350099,11.9875663 64.6279396,12.0280119 64.4655316,12.072502 L62.3136253,21.0003597 L59.0081144,21.0003597 L61.6700834,9.99562115 C62.3060124,9.78934865 63.0201002,9.5941987 63.8118393,9.41017128 C64.6020559,9.22513272 65.4937774,9.13311901 66.4844664,9.13311901 C66.8539446,9.13311901 67.2640249,9.16648662 67.7157222,9.23271627 C68.166912,9.29844035 68.5622741,9.40612672 68.9023159,9.55324754 L67.9263452,12.2054669 Z" id="Fill-5" fill="#35445F"></path>
                <path d="M71.7862764,21.0006125 C71.4015724,19.5278875 71.0539177,17.8074334 70.7438199,15.8407668 C70.4332145,13.873089 70.2185314,11.7193615 70.1002781,9.37655089 L73.5164294,9.37655089 C73.5311477,9.95087822 73.5534788,10.5813238 73.5834227,11.2663709 C73.6128592,11.951418 73.6499085,12.6400042 73.6940632,13.3321293 C73.7387254,14.0252655 73.7899855,14.6986845 73.8493659,15.3544086 C73.9087463,16.0101326 73.9752321,16.6031661 74.0493308,17.1330032 C74.3741468,16.6916408 74.7405799,16.1461309 75.1471075,15.4974848 C75.5536351,14.8498499 75.9495047,14.1713752 76.3342087,13.4645885 C76.7189127,12.7572964 77.0736727,12.0474763 77.3995038,11.3326006 C77.7243199,10.6182304 77.9760523,9.96604531 78.1531786,9.37655089 L81.6586543,9.37655089 C81.2739503,10.4230804 80.7968768,11.4979219 80.2274336,12.6030976 C79.6579905,13.7082732 79.0479453,14.7760367 78.3972982,15.8073991 C77.746651,16.8387616 77.0848383,17.8038944 76.41186,18.7027976 C75.7388818,19.6006896 75.1141184,20.367639 74.5370624,21.0006125 L71.7862764,21.0006125 Z" id="Fill-7" fill="#35445F"></path>
                <path d="M88.1138151,11.6747197 C87.3596329,11.6747197 86.6973126,11.9436828 86.128377,12.4816091 C85.5589339,13.0190299 85.1853954,13.729861 85.0082691,14.6135971 C85.925367,14.5847796 86.664831,14.5074274 87.2261538,14.3815406 C87.7884916,14.2566648 88.2249631,14.1054994 88.535061,13.9290556 C88.8456663,13.7516005 89.0532441,13.5604951 89.1567792,13.3537171 C89.2603143,13.1484557 89.3115743,12.9421832 89.3115743,12.7354052 C89.3115743,12.0276074 88.9126596,11.6747197 88.1138151,11.6747197 M81.6580961,16.4478045 C81.6580961,15.5054223 81.8245643,14.5918576 82.1580083,13.707616 C82.4899297,12.8238799 82.9598979,12.0397411 83.5658829,11.3541884 C84.1718678,10.6691413 84.9082867,10.1165534 85.773617,9.69743606 C86.6389472,9.27730753 87.595632,9.06699048 88.6467165,9.06699048 C89.1638845,9.06699048 89.6450183,9.14080367 90.0885952,9.28843006 C90.5321722,9.43504532 90.9199213,9.64940692 91.2533653,9.92898704 C91.5857942,10.2090727 91.844632,10.5513435 92.0298787,10.9563049 C92.2141103,11.3622775 92.3069874,11.8223461 92.3069874,12.3380273 C92.3069874,13.1626117 92.1212332,13.8628259 91.7522625,14.4371532 C91.3822767,15.0119861 90.8686613,15.4791327 90.2109088,15.8401095 C89.5521412,16.2015919 88.7720752,16.4634771 87.8702031,16.6252595 C86.967316,16.7870418 85.9842399,16.8674274 84.9189447,16.8674274 C85.0224798,17.4867505 85.2483285,17.9250795 85.5954757,18.1834257 C85.9436379,18.4407607 86.4948101,18.569681 87.2484849,18.569681 C87.7220058,18.569681 88.2031395,18.5292355 88.6908712,18.4478387 C89.1791103,18.3669475 89.6368979,18.2456108 90.0662641,18.0838284 L90.3098762,20.6693125 C89.8962432,20.8310949 89.3674021,20.9782157 88.7238603,21.1111806 C88.080826,21.2441454 87.381964,21.3103751 86.6272742,21.3103751 C85.7106839,21.3103751 84.9377232,21.1809492 84.3088996,20.9236142 C83.6805835,20.6657736 83.1705208,20.3154137 82.7782039,19.8740512 C82.3869021,19.4316776 82.101673,18.9154908 81.9245467,18.3259964 C81.7464054,17.7370075 81.6580961,17.1116176 81.6580961,16.4478045" id="Fill-9" fill="#35445F"></path>
                <path d="M96.5445173,18.657903 C97.2981921,18.657903 97.8163752,18.5512277 98.0975441,18.3373717 C98.3776979,18.1245268 98.5187899,17.8924702 98.5187899,17.6417076 C98.5187899,17.4794197 98.4929061,17.340388 98.440631,17.2215791 C98.389371,17.1037813 98.3046143,16.9935671 98.1853459,16.8899253 C98.0676001,16.7872946 97.9051921,16.6801138 97.6976143,16.569394 C97.4900365,16.4591798 97.2246009,16.330765 96.8987698,16.1826331 C96.5297991,16.0208507 96.1816369,15.8479458 95.8568208,15.6634129 C95.5314972,15.4793854 95.2462681,15.2584514 95.0026561,15.0011164 C94.758029,14.7432758 94.5661845,14.448023 94.4256001,14.1168747 C94.2850156,13.7852209 94.2144696,13.3908765 94.2144696,12.9343469 C94.2144696,11.7406965 94.6544939,10.7983144 95.5350499,10.1056837 C96.4140834,9.4135586 97.6976143,9.06673769 99.3841202,9.06673769 C100.182965,9.06673769 100.892485,9.15521241 101.514203,9.33216186 C102.134906,9.5091113 102.637863,9.70072226 103.022567,9.90648918 L101.890787,12.359514 C101.580689,12.1977317 101.181266,12.0430273 100.693027,11.8954009 C100.205296,11.7487857 99.724162,11.6744669 99.2511486,11.6744669 C99.0435708,11.6744669 98.8400533,11.6855894 98.6411034,11.7078345 C98.440631,11.7300796 98.2563994,11.7781087 98.085871,11.8514163 C97.9158501,11.9257351 97.7793258,12.0283658 97.6757907,12.1608251 C97.5717481,12.2932844 97.520488,12.4702338 97.520488,12.6911678 C97.520488,12.9864206 97.6346812,13.206849 97.8645901,13.3539699 C98.0934839,13.5015963 98.4152548,13.6785457 98.8293952,13.8848182 C99.4064513,14.1643983 99.88657,14.4227445 100.271782,14.6578345 C100.655978,14.8944411 100.962016,15.1441926 101.191924,15.4091112 C101.421326,15.675041 101.587794,15.9768662 101.691837,16.3155979 C101.794864,16.6543297 101.846124,17.0527188 101.846124,17.5092483 C101.846124,17.9804394 101.746649,18.4445525 101.546685,18.9010821 C101.347735,19.3581172 101.033069,19.7635842 100.60421,20.1164719 C100.174844,20.4703708 99.6277322,20.7575345 98.9623668,20.9784685 C98.2964939,21.1994025 97.4981569,21.3101223 96.5668484,21.3101223 C95.9892849,21.3101223 95.4685641,21.2732157 95.0026561,21.1994025 C94.5367481,21.1255893 94.1256528,21.0335756 93.7708927,20.9233614 C93.4166402,20.8126416 93.1166929,20.6988884 92.8730809,20.580585 C92.6284538,20.4627873 92.4396544,20.3672346 92.3066829,20.2929158 L93.4384638,17.7741669 C93.6901962,17.9212877 94.0814981,18.1053151 94.6138919,18.3262492 C95.1462857,18.5476887 95.7898275,18.657903 96.5445173,18.657903" id="Fill-11" fill="#35445F"></path>
                <path d="M106.638481,6.48155692 L110.076456,5.95070859 L109.233456,9.37644977 L112.054281,9.37644977 L111.388408,12.0726537 L108.59093,12.0726537 L107.614451,16.1389518 C107.525635,16.4776836 107.470314,16.7946759 107.448491,17.0889176 C107.42616,17.3836648 107.462701,17.6379664 107.558624,17.8513169 C107.655053,18.0656785 107.821522,18.2309998 108.058028,18.3487976 C108.294535,18.4671009 108.619859,18.5252414 109.033999,18.5252414 C109.389267,18.5252414 109.733369,18.4923794 110.065798,18.4261498 C110.398227,18.3604257 110.734208,18.2679064 111.074757,18.1506142 L111.319385,20.6688575 C110.875808,20.8311455 110.394166,20.9711883 109.877506,21.0889861 C109.358815,21.2067838 108.745217,21.2654299 108.036205,21.2654299 C107.015064,21.2654299 106.22434,21.1147701 105.66251,20.8124394 C105.100172,20.5111197 104.70075,20.0980692 104.464243,19.5748044 C104.227737,19.0520452 104.124201,18.4519338 104.153638,17.7739647 C104.183582,17.0970067 104.286609,16.3821309 104.464243,15.6303486 L106.638481,6.48155692 Z" id="Fill-13" fill="#35445F"></path>
                <path d="M119.183384,3.85173432 C119.849257,3.85173432 120.428851,3.92200853 120.92521,4.06205137 C121.420047,4.20209421 121.794093,4.33101452 122.045318,4.44881229 L120.935868,7.03429641 C120.669925,6.90133155 120.362365,6.80223986 120.015725,6.73601021 C119.667563,6.66927499 119.345792,6.63641295 119.050413,6.63641295 C118.237357,6.63641295 117.63391,6.84268545 117.242608,7.25523043 C116.849784,7.66777541 116.579781,8.18295107 116.432091,8.80176854 L116.299119,9.37660144 L120.204017,9.37660144 L119.538144,12.0728054 L115.656592,12.0728054 L114.303023,17.7078867 C113.800066,19.8151018 113.252446,21.4541592 112.661179,22.6250589 C112.069405,23.7964642 111.418758,24.6473382 110.709238,25.1771754 L107.758487,24.758058 C108.142684,24.4036536 108.497951,23.9693691 108.822767,23.4536878 C109.148598,22.937501 109.440933,22.3930023 109.699263,21.818675 C109.958101,21.2438421 110.180397,20.6578867 110.364628,20.0618198 C110.549367,19.4652474 110.701117,18.9086151 110.819878,18.3934394 L113.12658,8.75778397 C113.496058,7.19658433 114.161931,5.98827243 115.123184,5.13385941 C116.085451,4.2794464 117.438513,3.85173432 119.183384,3.85173432" id="Fill-15" fill="#35445F"></path>
                <path d="M132.049957,9.37644977 L130.475107,15.9837419 C130.268037,16.823999 130.208656,17.6672894 130.297473,18.5146245 C130.386797,19.3619595 130.556818,20.1167753 130.807536,20.7800829 L127.857292,21.2002114 C127.694377,20.8756356 127.539074,20.5146587 127.390877,20.1167753 C126.977244,20.4408455 126.510828,20.7133477 125.99366,20.9342817 C125.475985,21.1557213 124.898929,21.2664411 124.263507,21.2664411 C123.390564,21.2664411 122.684089,21.1071866 122.14459,20.7906999 C121.604583,20.4737076 121.202116,20.0545902 120.936173,19.5313254 C120.669215,19.0080606 120.525078,18.4079492 120.502746,17.7299801 C120.480923,17.0530221 120.558574,16.3598859 120.7357,15.6525937 L122.24508,9.37644977 L125.550083,9.37644977 L124.06405,15.6086091 C123.989444,15.9331849 123.926511,16.2643332 123.875758,16.6025594 C123.822976,16.9423023 123.819423,17.25525 123.863578,17.5419081 C123.90824,17.8300829 124.02294,18.0656785 124.20768,18.2492003 C124.392926,18.4337333 124.684753,18.5262526 125.084175,18.5262526 C125.424217,18.5262526 125.738375,18.4635619 126.027157,18.3381806 C126.314924,18.2133049 126.622484,17.9948987 126.947807,17.6865011 C126.977244,17.3174351 127.025459,16.9306742 127.091437,16.5262183 C127.15843,16.1207513 127.228469,15.7486519 127.302567,15.4104257 L128.744446,9.37644977 L132.049957,9.37644977 Z" id="Fill-17" fill="#35445F"></path>
                <path d="M137.551935,21.2217993 C136.501866,21.2217993 135.677137,21.0847898 135.078258,20.8127933 C134.479378,20.5402911 134.051027,20.1686973 133.791682,19.6970006 C133.532844,19.2258096 133.406978,18.6838387 133.414591,18.0726048 C133.421696,17.4618764 133.506453,16.8096913 133.670383,16.1170607 L136.487147,4.3822793 L139.92563,3.85143098 L136.842415,16.5806682 C136.782527,16.8465979 136.749538,17.0887659 136.741925,17.310711 C136.734312,17.5311395 136.775422,17.7262894 136.864746,17.8956553 C136.952548,18.0650212 137.104298,18.2020307 137.318981,18.3046613 C137.533157,18.4083031 137.832596,18.4740272 138.217808,18.5033503 L137.551935,21.2217993 Z" id="Fill-19" fill="#35445F"></path>
                <g id="Group-23" transform="translate(0.000000, 3.596978)">
                    <mask id="mask-2" fill="white">
                        <use xlink:href="#path-1"></use>
                    </mask>
                    <g id="Clip-22"></g>
                    <path d="M13.3701393,8.77886623 C12.0211376,12.5463726 9.47843696,16.4625165 6.2358592,18.8589175 C5.1715791,19.6465953 3.76065936,20.6562183 2.54818194,19.6597402 C1.55749298,18.8467839 1.14639766,17.2749673 0.828179431,16.096484 C0.273454515,14.0393203 -0.00466923077,11.850203 -0.000101505017,9.72579853 C0.00497374582,7.19997165 0.628722074,-1.21574377 4.89548545,0.624024843 C8.34361087,2.11090572 11.1943793,5.83088854 13.3701393,8.77886623" id="Fill-21" fill="#35445F" mask="url(#mask-2)"></path>
                </g>
                <g id="Group-26" transform="translate(13.703177, 0.057989)">
                    <mask id="mask-4" fill="white">
                        <use xlink:href="#path-3"></use>
                    </mask>
                    <g id="Clip-25"></g>
                    <path d="M0.252747492,14.8195157 C0.108102843,15.3078962 4.89812458,23.7493956 8.53910953,26.4410494 C9.7343311,27.3247855 11.3188244,28.4592842 12.6805142,27.3404582 C13.7930092,26.4263879 14.9486438,21.8701926 15.1445485,20.5142543 C15.7728645,16.1542201 15.7383528,15.2411609 15.7383528,12.8553769 C15.7383528,9.31638808 15.570362,-1.3556855 10.7783102,0.710578399 C6.90640134,2.38047555 1.75705184,9.7349999 0.252747492,14.8195157" id="Fill-24" fill="#35445F" mask="url(#mask-4)"></path>
                </g>
            </g>
        </g>
    </g>
</svg>