<?xml version="1.0" encoding="UTF-8"?>
<svg width="1.4em" height="1em" viewBox="0 0 18 9" version="1.1" xmlns="http://www.w3.org/2000/svg" xmlns:xlink="http://www.w3.org/1999/xlink">
    <!-- Generator: Sketch 3.6 (26304) - http://www.bohemiancoding.com/sketch -->
    <title>Page 1</title>
    <desc>Created with Sketch.</desc>
    <defs></defs>
    <g id="Page-1" stroke="none" stroke-width="1" fill="none" fill-rule="evenodd">
        <g id="Mobile-1-Completo-Copy" transform="translate(-286.000000, -83.000000)" fill="#35445F">
            <g id="Page-1" transform="translate(286.000000, 83.000000)">
                <g id="Group-3" transform="translate(0.000000, 6.679063)">
                    <path d="M17.2729024,0.00668505145 L0.727099875,0.00668505145 C0.325553625,0.00668505145 1.12499993e-06,0.400466156 1.12499993e-06,0.886289206 C1.12499993e-06,1.37211225 0.325553625,1.76589336 0.727099875,1.76589336 L17.2729024,1.76589336 C17.6744824,1.76589336 18.0000011,1.37211225 18.0000011,0.886289206 C18.0000011,0.400506985 17.6744711,0.00668505145 17.2729024,0.00668505145" id="Fill-1"></path>
                </g>
                <g id="Group-6" transform="translate(0.000000, 0.010343)">
                    <path d="M17.2729024,0.00332211128 L0.727099875,0.00332211128 C0.325553625,0.00332211128 1.12499993e-06,0.397144045 1.12499993e-06,0.882926265 C1.12499993e-06,1.36870849 0.325553625,1.76254403 0.727099875,1.76254403 L17.2729024,1.76254403 C17.6744824,1.76254403 18.0000011,1.36870849 18.0000011,0.882926265 C18.0000011,0.397144045 17.6744711,0.00332211128 17.2729024,0.00332211128" id="Fill-4"></path>
                </g>
            </g>
        </g>
    </g>
</svg>