<?xml version="1.0" encoding="utf-8"?>
<!-- Generator: Adobe Illustrator 16.0.0, SVG Export Plug-In . SVG Version: 6.00 Build 0)  -->
<!DOCTYPE svg PUBLIC "-//W3C//DTD SVG 1.1//EN" "http://www.w3.org/Graphics/SVG/1.1/DTD/svg11.dtd">
<svg version="1.1" id="Capa_2" xmlns="http://www.w3.org/2000/svg" xmlns:xlink="http://www.w3.org/1999/xlink" x="0px" y="0px"
	 width="14px" height="14px" viewBox="0 0 14 14" enable-background="new 0 0 14 14" xml:space="preserve">
<g id="Page-1_1_">
	<g id="_x31_-Paso---Fecha-lejos_1_" transform="translate(-887.000000, -346.000000)">
		<g id="_x30_01-placeholder" transform="translate(887.000000, 346.000000)">
			<path id="Shape_1_" fill="#35445F" d="M7.005,0c-2.75,0-4.988,2.183-4.988,4.866C2.017,8.238,7.01,14,7.01,14
				s4.982-5.926,4.982-9.133C11.992,2.184,9.755,0,7.005,0L7.005,0z M8.51,6.292C8.095,6.696,7.55,6.899,7.005,6.899
				S5.915,6.696,5.5,6.292c-0.83-0.81-0.83-2.126,0-2.937c0.402-0.392,0.936-0.608,1.505-0.608c0.568,0,1.103,0.216,1.505,0.608
				C9.34,4.165,9.34,5.482,8.51,6.292L8.51,6.292z"/>
		</g>
	</g>
</g>
</svg>
