<?xml version="1.0" encoding="UTF-8"?>
<svg width="23px" height="23px" viewBox="0 0 23 23" version="1.1" xmlns="http://www.w3.org/2000/svg" xmlns:xlink="http://www.w3.org/1999/xlink">
    <!-- Generator: Sketch 3.6 (26304) - http://www.bohemiancoding.com/sketch -->
    <title>Group 4</title>
    <desc>Created with Sketch.</desc>
    <defs>
        <path id="path-1" d="M7.98944262,9.44788206 L7.98944262,0.0533525111 L0,0.0533525111 L0,9.44788206 L7.98944262,9.44788206 L7.98944262,9.44788206 Z"></path>
    </defs>
    <g id="Page-1" stroke="none" stroke-width="1" fill="none" fill-rule="evenodd">
        <g id="2-Paso---Paso2" transform="translate(-1064.000000, -526.000000)">
            <g id="Group-4" transform="translate(1064.000000, 526.000000)">
                <ellipse id="Oval-92" fill="#35445F" opacity="0.214221014" cx="11.5" cy="11.5" rx="11.5" ry="11.5"></ellipse>
                <g id="Page-1" transform="translate(7.000000, 5.000000)">
                    <g id="Group-3" transform="translate(0.000000, 0.008975)">
                        <mask id="mask-2" fill="white">
                            <use xlink:href="#path-1"></use>
                        </mask>
                        <g id="Clip-2"></g>
                        <path d="M5.04287213,9.44788206 L2.94451148,9.44788206 L2.94451148,7.80592113 C2.95041311,6.79016661 3.62549508,5.88691358 4.63264262,5.54722762 C5.53382295,5.23883016 6.05323279,4.34162292 5.84497049,3.45295457 C5.68982295,2.77171281 5.13008525,2.23943426 4.41336393,2.09177994 C3.3896918,1.87363299 2.37382295,2.48562867 2.14431475,3.45862639 C2.11388852,3.5875824 2.09854426,3.71928083 2.09834754,3.85135323 L-1.31147551e-05,3.85135323 C-0.00060327869,1.75433777 1.78739672,0.0539134604 3.9936918,0.0533525111 C6.19992131,0.0527915618 7.98890492,1.75228095 7.98949508,3.84929642 C7.9899541,5.45417236 6.92877377,6.88602661 5.33874098,7.4260338 C5.16497049,7.47976028 5.04621639,7.63233849 5.04287213,7.80592113 L5.04287213,9.44788206 Z" id="Fill-1" fill="#FFFFFF" mask="url(#mask-2)"></path>
                    </g>
                    <path d="M3.9936918,10.7916673 C4.57310164,10.7916673 5.04287213,11.2381829 5.04287213,11.7889105 C5.04287213,12.3397003 4.57310164,12.7861537 3.9936918,12.7861537 C3.41428197,12.7861537 2.94451148,12.3397003 2.94451148,11.7889105 C2.94451148,11.2381829 3.41428197,10.7916673 3.9936918,10.7916673" id="Fill-4" fill="#FFFFFF"></path>
                </g>
            </g>
        </g>
    </g>
</svg>