<?xml version="1.0" encoding="UTF-8"?>
<svg width="12px" height="14px" viewBox="0 0 12 14" version="1.1" xmlns="http://www.w3.org/2000/svg" xmlns:xlink="http://www.w3.org/1999/xlink">
    <!-- Generator: Sketch 3.6 (26304) - http://www.bohemiancoding.com/sketch -->
    <title>Page 1</title>
    <desc>Created with Sketch.</desc>
    <defs>
        <path id="path-1" d="M12,6.99999385 L12,0 L0,0 L0,6.99999385 L0,13.9999877 L12,13.9999877 L12,6.99999385 L12,6.99999385 Z"></path>
    </defs>
    <g id="Page-1" stroke="none" stroke-width="1" fill="none" fill-rule="evenodd">
        <g id="1-Paso---Home" transform="translate(-1222.000000, -128.000000)">
            <g id="Page-1" transform="translate(1222.000000, 128.000000)">
                <mask id="mask-2" fill="white">
                    <use xlink:href="#path-1"></use>
                </mask>
                <g id="Clip-2"></g>
                <path d="M5.38594444,7.32035391 L7.77383333,4.96980313 C7.99077778,4.75624844 8.34252778,4.75622109 8.5595,4.96980313 C8.77647222,5.18338516 8.77644444,5.52963906 8.55947222,5.74319375 L5.77877778,8.48046719 C5.56177778,8.69404922 5.21002778,8.69396719 4.99311111,8.48046719 L3.4405,6.95208828 C3.22352778,6.73850625 3.22352778,6.39225234 3.4405,6.17869766 C3.65747222,5.96514297 4.00922222,5.96511563 4.22616667,6.17869766 L5.38594444,7.32035391 Z M10.8888889,5.47700234 C10.8888889,8.64327188 9,11.5580609 6,12.8591313 C3.08016667,11.5927875 1.11111111,8.72907656 1.11111111,5.47700234 L1.11111111,3.13711563 L6,1.13899844 L10.8888889,3.13711563 L10.8888889,5.47700234 Z M11.6574722,2.26695547 L6.21302778,0.041803125 C6.07663889,-0.0139234375 5.92333333,-0.0139507812 5.78697222,0.041803125 L0.342527778,2.26695547 C0.135166667,2.35172109 0,2.55100234 0,2.77202188 L0,5.47700234 C0,9.20160391 2.28691667,12.5519242 5.79005556,13.9594438 C5.92461111,14.0135023 6.07536111,14.0135023 6.20997222,13.9594438 C9.71302778,12.5519516 12,9.20160391 12,5.47700234 L12,2.77202188 C12,2.55100234 11.8648611,2.35172109 11.6574722,2.26695547 L11.6574722,2.26695547 Z" id="Fill-1" fill="#35445F" mask="url(#mask-2)"></path>
            </g>
        </g>
    </g>
</svg>